<svg version="1.1" id="Layer_1" xmlns="http://www.w3.org/2000/svg" xmlns:xlink="http://www.w3.org/1999/xlink" x="0px" y="0px"
	 width="100%" viewBox="0 0 434 431" enable-background="new 0 0 434 431" xml:space="preserve">
<path fill="#1791F2" opacity="1.000000" stroke="none" 
	d="
M289.040588,410.109894 
	C281.163239,412.417023 273.276306,414.692139 265.410461,417.037842 
	C248.200562,422.170013 230.444061,423.152832 212.727264,422.783051 
	C200.151062,422.520569 187.340820,421.484283 175.124176,418.670074 
	C154.565613,413.934265 134.785934,406.863159 116.183937,396.257446 
	C92.789986,382.919769 73.270370,365.577484 56.280201,344.919891 
	C45.634949,331.976776 37.529491,317.619598 30.206907,302.669250 
	C21.462322,284.815674 16.766966,265.764984 13.124880,246.410309 
	C12.155761,241.260239 12.351927,235.891953 11.997138,230.624908 
	C11.675986,225.857269 10.787037,221.054626 11.102370,216.331100 
	C12.040778,202.274155 12.834578,188.252686 15.607600,174.298523 
	C18.651453,158.981491 23.667276,144.382599 29.677042,130.210678 
	C33.998241,120.020653 40.506580,110.715897 46.416454,101.251770 
	C55.097225,87.350304 66.161133,75.380836 78.217148,64.398705 
	C89.798752,53.848709 102.329590,44.610180 116.050468,36.804813 
	C128.366623,29.798546 141.234879,24.259974 154.431091,19.423727 
	C160.334000,17.260386 166.692978,16.261171 172.905563,15.042418 
	C181.682159,13.320666 190.481796,11.644946 199.337006,10.424100 
	C204.078659,9.770381 208.961014,10.195593 213.773544,9.987344 
	C232.811508,9.163533 251.552658,11.725847 269.902222,16.260603 
	C281.837524,19.210190 293.957245,22.786488 304.826019,28.360226 
	C321.523254,36.922962 338.078552,46.148403 351.855713,59.352478 
	C358.822754,66.029724 366.606445,72.035484 372.635193,79.468758 
	C381.648834,90.582275 389.674347,102.529320 397.686066,114.414421 
	C405.845642,126.518890 410.761810,140.272186 415.216949,153.993591 
	C418.510742,164.138123 420.384155,174.846466 421.874420,185.446442 
	C423.520508,197.154968 425.140350,209.068497 424.703827,220.815887 
	C424.195862,234.484756 422.177277,248.219131 419.447113,261.647095 
	C417.063782,273.369324 413.562134,285.018524 409.107483,296.119293 
	C405.139343,306.007629 399.826874,315.521057 393.950165,324.436981 
	C386.713989,335.415466 379.176910,346.461090 370.143097,355.924866 
	C357.678406,368.982788 342.050262,378.111359 326.078766,386.586823 
	C313.963837,393.015778 301.321930,398.005096 288.136108,401.201782 
	C276.603546,403.997620 264.707855,405.462189 252.896652,406.883636 
	C245.036865,407.829559 237.009705,408.277557 229.118713,407.841156 
	C219.668411,407.318481 210.265076,405.743561 200.874268,404.395477 
	C186.938751,402.394958 173.821457,397.519196 160.841217,392.343536 
	C146.851456,386.765381 134.300201,378.647980 122.218475,369.743774 
	C100.868790,354.009125 82.785118,335.158142 70.574280,311.577454 
	C64.198540,299.265076 59.348816,285.937897 55.539890,272.575897 
	C50.394474,254.525436 49.939098,235.693527 51.146358,217.047653 
	C52.506844,196.035431 58.337196,175.951874 67.593025,157.083588 
	C74.403000,143.201233 82.569588,130.008713 93.616615,118.950935 
	C100.699188,111.861465 107.397171,104.081985 115.527107,98.420555 
	C126.157013,91.018227 137.651062,84.547859 149.488419,79.284882 
	C159.188248,74.972267 169.770950,72.021988 180.263046,70.293961 
	C190.312134,68.638908 200.747940,69.312309 211.015076,69.005211 
	C227.646393,68.507759 243.373734,72.585869 258.804321,78.339249 
	C280.677521,86.494766 299.403473,99.323708 314.964813,116.598022 
	C326.953979,129.906967 335.684204,145.195984 341.719788,162.176834 
	C348.164581,180.309036 348.980927,199.031982 347.761749,217.746796 
	C346.521179,236.790710 340.223724,254.648132 330.356262,271.101257 
	C317.765289,292.095612 300.793640,308.649323 278.810822,319.417480 
	C266.980103,325.212708 254.309219,328.735077 240.937347,330.241028 
	C228.435776,331.648956 216.147202,330.941498 204.068192,328.724243 
	C195.233154,327.102448 186.621323,323.548340 178.314636,319.927338 
	C164.808823,314.039886 153.073532,305.375916 143.065430,294.522675 
	C132.858734,283.454010 125.335838,270.866608 120.607117,256.433594 
	C116.831444,244.909470 114.610039,233.273270 115.045975,221.213013 
	C115.731194,202.256226 120.939201,184.662201 130.990967,168.422485 
	C143.202118,148.694000 160.396027,135.290527 182.038910,127.652428 
	C188.103790,125.512039 194.763275,124.787392 201.223038,124.117676 
	C206.694244,123.550453 212.270889,123.997719 217.800873,124.000267 
	C238.729340,124.009926 256.179840,132.527359 272.101654,145.470169 
	C284.791107,155.785370 293.352844,168.874619 298.290802,184.054565 
	C302.482849,196.941467 303.560852,210.492676 300.897675,224.015640 
	C297.101990,243.289261 288.334442,259.903320 273.465576,272.917725 
	C265.297333,280.067200 255.950790,285.074463 245.343430,288.171509 
	C228.722137,293.024445 212.256790,292.546448 196.338699,286.765350 
	C179.438843,280.627716 166.032730,269.638855 157.106613,253.536621 
	C151.258392,242.986740 148.047943,231.579590 148.242523,219.861435 
	C148.569702,200.157211 155.670731,182.831329 170.251389,168.917709 
	C185.072952,154.774216 202.988083,149.307831 222.836853,151.307083 
	C230.850449,152.114243 238.530945,156.243179 246.357285,158.877533 
	C247.445236,159.243713 248.500031,159.708359 249.780487,159.634964 
	C243.967743,153.766418 236.426956,151.075623 228.871658,149.260712 
	C221.922302,147.591385 214.512497,146.851898 207.371338,147.171844 
	C192.142334,147.854156 178.647781,153.556580 166.963928,163.496765 
	C156.672958,172.251923 149.238571,183.113190 144.421219,195.532791 
	C141.988159,201.805435 140.727829,208.740067 140.147034,215.479645 
	C139.035995,228.371796 140.483963,240.983749 145.876221,253.077621 
	C152.959824,268.964905 163.605240,281.658630 178.194366,291.001068 
	C187.442474,296.923279 197.395935,301.598816 208.341705,302.964661 
	C216.875488,304.029541 225.636703,304.502228 234.187469,303.835480 
	C241.881332,303.235565 249.543152,301.132050 257.011871,298.974365 
	C270.817322,294.986084 281.998962,286.411621 291.752899,276.333832 
	C303.252686,264.452179 310.860382,250.065186 315.475952,234.119980 
	C319.722351,219.449951 320.625519,204.418442 317.768005,189.636841 
	C313.879883,169.524216 304.755981,151.795593 290.186096,136.918564 
	C281.166718,127.709061 271.197510,119.920410 259.662720,114.444016 
	C248.485291,109.137276 236.842041,104.768417 224.251755,104.016853 
	C216.991699,103.583466 209.722351,103.106529 202.454285,103.054451 
	C192.199707,102.980965 182.454575,105.685959 172.810135,108.980881 
	C161.305801,112.911232 150.828781,118.571716 141.138245,125.914940 
	C127.808723,136.015671 117.417717,148.542099 108.973763,162.881470 
	C102.710533,173.517593 98.735268,185.036911 95.700249,196.851425 
	C92.372574,209.805176 91.413895,222.921631 92.690781,236.433884 
	C93.630928,246.382889 96.166122,255.811478 99.178513,265.042694 
	C106.187607,286.521362 118.478775,304.572357 135.696930,319.560669 
	C146.480103,328.947357 158.177643,336.510162 171.004150,342.439667 
	C180.914124,347.020996 191.321762,349.972198 202.086151,352.294952 
	C212.893219,354.626831 223.606491,354.978088 234.462738,354.984100 
	C247.705124,354.991425 260.373352,351.707581 272.785767,347.564819 
	C288.032227,342.476196 302.348969,335.313354 314.688507,324.943298 
	C322.475616,318.399109 329.727264,311.124298 336.584198,303.598724 
	C341.389923,298.324402 345.528015,292.320496 349.259705,286.212006 
	C359.862610,268.855865 366.932129,250.264633 370.278473,229.986938 
	C372.442230,216.875549 372.500214,203.822922 371.664398,190.886322 
	C370.948700,179.808945 367.690735,168.826019 364.897522,157.971054 
	C361.710388,145.585358 355.878540,134.282486 349.138733,123.430099 
	C332.685913,96.938034 309.993744,77.535431 282.264252,63.596237 
	C265.189545,55.013035 247.073700,48.928257 228.332825,47.489170 
	C210.526413,46.121834 192.398117,45.571373 174.415176,49.525356 
	C160.632950,52.555710 147.112335,56.287197 134.630600,62.460808 
	C123.024300,68.201408 111.949860,75.388809 101.598427,83.206604 
	C86.638535,94.504875 74.525993,108.750832 64.139648,124.375328 
	C54.720894,138.544266 46.878498,153.586288 42.113213,169.919983 
	C38.983887,180.646210 37.772072,191.921143 34.872879,202.728043 
	C31.479111,215.378479 33.189110,228.136169 33.228172,240.809189 
	C33.252460,248.688034 35.122204,256.645081 36.854847,264.412811 
	C38.864971,273.424591 40.931591,282.539185 44.256596,291.111542 
	C48.005943,300.777954 52.855053,310.068634 57.811943,319.204742 
	C66.790939,335.753998 78.561020,350.304565 92.569313,362.769623 
	C101.584229,370.791412 111.583023,377.759888 121.464645,384.742218 
	C134.298645,393.810699 148.534393,400.246674 163.449966,405.050690 
	C178.506149,409.899963 193.590408,414.745667 209.669586,415.033569 
	C218.440140,415.190582 227.204681,415.943695 235.972275,415.949524 
	C251.608475,415.959930 266.951874,413.542572 282.045319,409.494720 
	C284.073273,408.950836 286.127228,408.503998 288.579926,408.318481 
	C289.007355,409.119781 289.023987,409.614838 289.040588,410.109894 
z"/>
<path fill="#1B91EE" opacity="1.000000" stroke="none" 
	d="
M289.425903,410.064178 
	C289.023987,409.614838 289.007355,409.119781 288.978455,408.253418 
	C298.773682,404.006348 308.581177,400.130585 318.388702,396.254791 
	C318.593048,396.707397 318.797394,397.160004 319.001770,397.612610 
	C309.271545,401.747894 299.541351,405.883179 289.425903,410.064178 
z"/>
</svg>